HIERARCHY
ROOT Hips
{
	OFFSET -0.001795 -0.223333 0.028219
	CHANNELS 6 Xposition Yposition Zposition Zrotation Yrotation Xrotation
	JOINT LeftUpLeg
	{
		OFFSET 0.069520 -0.091406 -0.006815
		CHANNELS 3 Zrotation Yrotation Xrotation
		JOINT LeftLeg
		{
			OFFSET 0.034277 -0.375199 -0.004496
			CHANNELS 3 Zrotation Yrotation Xrotation
			JOINT LeftFoot
			{
				OFFSET -0.013596 -0.397961 -0.043693
				CHANNELS 3 Zrotation Yrotation Xrotation
				JOINT LeftToe
				{
					OFFSET 0.026358 -0.055791 0.119288
					CHANNELS 3 Zrotation Yrotation Xrotation
					End Site
					{
						OFFSET 0.000000 0.000000 0.000000
					}
				}
			}
		}
	}
	JOINT RightUpLeg
	{
		OFFSET -0.067670 -0.090522 -0.004320
		CHANNELS 3 Zrotation Yrotation Xrotation
		JOINT RightLeg
		{
			OFFSET -0.038290 -0.382569 -0.008850
			CHANNELS 3 Zrotation Yrotation Xrotation
			JOINT RightFoot
			{
				OFFSET 0.015774 -0.398415 -0.042312
				CHANNELS 3 Zrotation Yrotation Xrotation
				JOINT RightToe
				{
					OFFSET -0.025372 -0.048144 0.123348
					CHANNELS 3 Zrotation Yrotation Xrotation
					End Site
					{
						OFFSET 0.000000 0.000000 0.000000
					}
				}
			}
		}
	}
	JOINT Spine
	{
		OFFSET -0.002533 0.108963 -0.026696
		CHANNELS 3 Zrotation Yrotation Xrotation
		JOINT Spine1
		{
			OFFSET 0.005487 0.135180 0.001092
			CHANNELS 3 Zrotation Yrotation Xrotation
			JOINT Spine2
			{
				OFFSET 0.001457 0.052922 0.025425
				CHANNELS 3 Zrotation Yrotation Xrotation
				JOINT Neck
				{
					OFFSET -0.002778 0.213870 -0.042857
					CHANNELS 3 Zrotation Yrotation Xrotation
					JOINT Head
					{
						OFFSET 0.005152 0.064970 0.051349
						CHANNELS 3 Zrotation Yrotation Xrotation
						End Site
						{
							OFFSET 0.000000 0.000000 0.000000
						}
					}
				}
				JOINT LeftShoulder
				{
					OFFSET 0.078845 0.121749 -0.034090
					CHANNELS 3 Zrotation Yrotation Xrotation
					JOINT LeftArm
					{
						OFFSET 0.090977 0.030469 -0.008868
						CHANNELS 3 Zrotation Yrotation Xrotation
						JOINT LeftForeArm
						{
							OFFSET 0.259612 -0.012772 -0.027456
							CHANNELS 3 Zrotation Yrotation Xrotation
							JOINT LeftHand
							{
								OFFSET 0.249234 0.008986 -0.001171
								CHANNELS 3 Zrotation Yrotation Xrotation
								End Site
								{
									OFFSET 0.000000 0.000000 0.000000
								}
							}
						}
					}
				}
				JOINT RightShoulder
				{
					OFFSET -0.081759 0.118833 -0.038615
					CHANNELS 3 Zrotation Yrotation Xrotation
					JOINT RightArm
					{
						OFFSET -0.096012 0.032551 -0.009143
						CHANNELS 3 Zrotation Yrotation Xrotation
						JOINT RightForeArm
						{
							OFFSET -0.253742 -0.013329 -0.021401
							CHANNELS 3 Zrotation Yrotation Xrotation
							JOINT RightHand
							{
								OFFSET -0.255298 0.007772 -0.005559
								CHANNELS 3 Zrotation Yrotation Xrotation
								End Site
								{
									OFFSET 0.000000 0.000000 0.000000
								}
							}
						}
					}
				}
			}
		}
	}
}
MOTION
Frames: 11
Frame Time: 0.050000
0.072593 0.160679 -0.114975 1.440548 -11.417146 -97.399161 -2.125373 -3.626322 -27.859902 -1.223300 2.645920 66.331762 8.115440 14.657516 7.875798 0.000000 0.000000 0.000000 -2.907670 1.670953 -20.795610 21.295972 -6.034553 52.049901 -23.910160 -44.189521 -4.047397 0.000000 0.000000 0.000000 5.902795 1.693191 10.547830 -2.870584 1.473482 -3.860693 0.180000 -4.980074 26.953586 1.605126 -2.083459 2.444002 0.000000 0.000000 0.000000 -17.780606 -30.734517 18.274290 -25.564717 -57.280631 6.426654 49.342772 -50.234262 -19.069618 0.000000 0.000000 0.000000 -3.816465 6.886613 2.530356 29.054804 14.568232 -1.281393 9.649388 22.818628 2.053266 0.000000 0.000000 0.000000
0.074413 0.158741 -0.115015 3.676882 -9.587722 -97.624525 -2.391332 -3.901171 -29.497379 -1.941467 3.657513 67.322821 7.887549 15.386416 21.079746 0.000000 0.000000 0.000000 -3.111247 1.627451 -21.130949 23.602193 -7.065347 51.483036 -24.580500 -45.518988 -3.645983 0.000000 0.000000 0.000000 9.125655 2.567649 11.271440 -5.460263 3.201592 -5.970054 -1.510580 -8.899909 29.399662 -0.982753 0.126199 2.803064 0.000000 0.000000 0.000000 -17.758236 -30.005518 18.233995 -27.984796 -54.510444 6.737440 51.340517 -52.820675 -20.979347 0.000000 0.000000 0.000000 -5.530099 8.883296 3.307276 33.439503 18.470437 -0.781372 14.325689 28.025503 3.474682 0.000000 0.000000 0.000000
0.078342 0.155688 -0.117029 6.856480 -6.689289 -97.381976 -2.452112 -3.942711 -29.885940 0.909771 1.619398 71.679241 6.400569 13.210660 16.837436 0.000000 0.000000 0.000000 -3.168969 1.683636 -21.832643 23.169290 -6.925313 53.632741 -25.278051 -46.814636 -3.170867 0.000000 0.000000 0.000000 10.047645 2.707257 10.420767 -6.407927 3.770392 -5.165947 -3.293025 -7.290015 29.659398 -0.019930 -1.009351 -1.102178 0.000000 0.000000 0.000000 -18.672745 -31.942032 18.957764 -28.346767 -50.704204 5.867426 48.020481 -55.795665 -21.197440 0.000000 0.000000 0.000000 -6.515387 7.996346 3.065126 39.645016 25.166947 1.028711 18.103405 28.900235 4.776588 0.000000 0.000000 0.000000
0.083979 0.155754 -0.123247 8.196394 -3.048321 -95.296496 -3.237874 -4.566855 -30.911393 4.452160 -2.302431 69.544218 0.939011 7.862740 23.976780 0.000000 0.000000 0.000000 -5.296318 0.819175 -22.490635 21.530289 -6.244257 52.370930 -23.868210 -39.935844 8.410862 0.000000 0.000000 0.000000 9.840060 2.860298 6.197013 -9.227311 6.251762 1.191130 -2.673744 -10.756970 26.787569 0.042247 -1.047523 6.021536 0.000000 0.000000 0.000000 -20.802293 -28.832335 18.961504 -26.380330 -48.658154 4.256605 44.890647 -61.644983 -21.526533 0.000000 0.000000 0.000000 -6.192573 13.611172 4.633256 44.056502 30.041530 3.039645 14.847885 34.805354 4.955892 0.000000 0.000000 0.000000
0.090277 0.161933 -0.131572 8.585987 -0.620327 -91.975619 0.529452 -2.981143 -34.179804 1.300799 -1.850173 66.471331 0.710101 7.961050 25.443255 0.000000 0.000000 0.000000 -7.347228 0.090699 -23.615942 19.369807 -5.485117 50.128695 -21.549971 -35.033828 14.375454 0.000000 0.000000 0.000000 11.671556 3.453515 4.947417 -9.653196 6.911818 3.204695 -6.387199 -11.200618 24.589482 1.272160 -2.420283 23.496607 0.000000 0.000000 0.000000 -26.919878 -30.057023 21.362523 -17.964299 -35.964483 -0.142923 26.622755 -75.043088 -15.361711 0.000000 0.000000 0.000000 5.568600 18.005816 6.281620 37.106480 31.777023 3.296905 13.762130 37.146311 5.285455 0.000000 0.000000 0.000000
0.096589 0.167679 -0.137513 9.663236 1.712016 -87.825464 4.302667 -1.354905 -38.448266 -3.815337 0.971262 62.743193 4.613202 11.694628 23.435240 0.000000 0.000000 0.000000 -9.045234 -0.367092 -26.276986 18.569253 -5.369583 49.563700 -25.376647 -39.791674 13.171949 0.000000 0.000000 0.000000 12.570272 3.502627 4.888896 -12.207843 9.358556 5.289870 -4.802232 -12.857940 20.998139 1.721328 -3.156192 37.206332 0.000000 0.000000 0.000000 -32.756545 -29.013839 22.470236 -8.901745 -22.851722 -1.572096 -63.550658 -84.829554 62.898865 0.000000 0.000000 0.000000 14.077004 19.513189 7.167163 27.030357 30.914873 2.047136 19.502816 42.457377 8.218210 0.000000 0.000000 0.000000
0.103935 0.173603 -0.139465 9.678243 2.406483 -84.914655 9.114727 1.097553 -41.858747 -7.946815 2.862224 59.389006 1.523713 10.295577 32.855687 0.000000 0.000000 0.000000 -11.180993 -1.065547 -28.608145 19.635416 -6.099300 50.861778 -29.996396 -44.656505 14.148314 0.000000 0.000000 0.000000 14.634909 3.177131 9.271628 -12.700789 9.595835 1.429423 -6.974536 -13.910984 23.239152 2.631394 -5.169536 41.685173 0.000000 0.000000 0.000000 -33.806036 -27.107843 20.990015 -2.102520 -11.690790 -1.005158 -118.590666 -71.836973 103.286478 0.000000 0.000000 0.000000 17.967659 21.468523 8.020784 18.204813 28.173377 0.613202 24.607280 48.913844 11.360473 0.000000 0.000000 0.000000
0.113669 0.179740 -0.137846 9.556146 4.005138 -83.079726 11.452652 1.986465 -45.773794 -10.934622 4.412453 61.967326 1.388194 10.650953 33.852306 0.000000 0.000000 0.000000 -12.488807 -1.636523 -30.647857 18.587144 -5.880726 52.683405 -31.621951 -43.834340 22.158043 0.000000 0.000000 0.000000 15.242050 2.898056 10.913964 -12.644092 9.407972 0.596197 -7.763170 -15.168146 25.511152 3.287204 -6.248266 40.433942 0.000000 0.000000 0.000000 -32.336299 -22.650869 17.459941 2.730206 -5.600124 -0.033973 -113.226874 -61.429083 84.089151 0.000000 0.000000 0.000000 14.498802 20.208809 7.075112 15.388742 25.163453 0.004228 38.076212 56.222900 19.940775 0.000000 0.000000 0.000000
0.126368 0.193774 -0.134623 8.726695 5.206947 -80.764922 14.574353 3.285253 -50.787634 -16.136992 8.232941 71.752204 4.727310 13.409492 27.473473 0.000000 0.000000 0.000000 -14.211177 -2.489729 -32.664367 17.957285 -6.339452 57.619244 -25.740959 -43.335236 5.795240 0.000000 0.000000 0.000000 14.850156 2.363691 11.954400 -10.351394 7.567463 0.565183 -9.085151 -12.190521 26.797003 1.884229 -5.529061 40.656574 0.000000 0.000000 0.000000 -31.752585 -24.666065 17.304432 1.906881 0.934725 0.368352 -104.982211 -56.729476 69.711580 0.000000 0.000000 0.000000 18.009199 18.547560 7.054496 5.643253 14.243491 -0.731845 57.289308 55.906518 30.576270 0.000000 0.000000 0.000000
0.140360 0.213055 -0.130212 8.384200 6.222544 -78.954367 19.272485 5.771625 -53.027700 -22.996891 16.252951 87.462013 9.609849 18.612150 4.816703 0.000000 0.000000 0.000000 -15.188006 -3.096565 -34.462441 16.166528 -5.625888 62.879202 -20.623767 -38.087703 1.069153 0.000000 0.000000 0.000000 14.431311 2.056990 12.988892 -9.479113 6.947341 1.614875 -8.068627 -13.070720 27.807819 0.366802 -1.869183 36.933194 0.000000 0.000000 0.000000 -25.508073 -19.177563 12.445665 -4.433071 -1.280483 -0.939627 -94.121257 -52.151520 56.546362 0.000000 0.000000 0.000000 14.061575 15.841055 5.477094 6.764826 4.285325 -0.638303 69.181221 51.546870 33.918606 0.000000 0.000000 0.000000
0.153269 0.239227 -0.126372 7.946850 7.197186 -74.929644 25.569680 9.013849 -56.295362 -29.668361 31.719248 106.646791 11.854590 27.531267 -9.257202 0.000000 0.000000 0.000000 -17.631248 -4.375528 -37.706461 16.480684 -6.692886 67.995511 -16.080474 -33.432906 -6.521693 0.000000 0.000000 0.000000 13.931685 1.433702 14.413482 -9.176978 6.561179 -4.087980 -8.860139 -12.126363 31.431300 -0.049829 -1.836191 35.889251 0.000000 0.000000 0.000000 -26.529894 -18.411081 11.800589 -4.902799 0.090630 -1.064760 -82.403805 -47.919412 42.876746 0.000000 0.000000 0.000000 14.822352 14.082191 4.935724 6.537776 -9.169752 -0.873305 72.565653 46.826412 32.072066 0.000000 0.000000 0.000000
